<svg width="84" height="84" viewBox="0 0 84 84" fill="none" xmlns="http://www.w3.org/2000/svg">
  <circle cx="42" cy="42" r="41" fill="#FFD266" stroke="#FFE49B" stroke-width="2"/>
  <circle cx="42" cy="44" r="24" fill="#FFF7EF"/>
  <path d="M18 30C20 18 31 12 42 12C53 12 64 18 66 30C60 25 55 23 50 22C46 17 40 16 35 17C29 18 24 22 18 30Z" fill="#8D583D"/>
  <path d="M23 28C26 18 34 13 42 13C50 13 58 18 61 28C58 22 52 18 42 18C32 18 26 22 23 28Z" fill="#D7F7FF"/>
  <circle cx="33" cy="44" r="3.2" fill="#6F4D3F"/>
  <circle cx="51" cy="44" r="3.2" fill="#6F4D3F"/>
  <path d="M34 56C38 60 46 60 50 56" stroke="#E28877" stroke-width="3.2" stroke-linecap="round"/>
  <circle cx="26" cy="27" r="6" fill="#FFF"/>
  <circle cx="58" cy="27" r="6" fill="#FFF"/>
  <circle cx="26" cy="27" r="2.2" fill="#D59A47"/>
  <circle cx="58" cy="27" r="2.2" fill="#D59A47"/>
</svg>
