<svg width="73" height="73" viewBox="0 0 73 73" fill="none" xmlns="http://www.w3.org/2000/svg">
  <circle cx="36.5" cy="36.5" r="36.5" fill="#1EA4E9"/>
  <path d="M23 42.5C18.8 39.7 16 35.2 16 30.2C16 21.5 24 14.5 34 14.5C40.7 14.5 46.5 17.6 49.5 22.2" stroke="white" stroke-width="3.1" stroke-linecap="round"/>
  <path d="M50 53L46.2 47.8C43.6 49.1 40.6 49.8 37.5 49.8C27.8 49.8 20 43.6 20 35.9C20 28.2 27.8 22 37.5 22C47.2 22 55 28.2 55 35.9C55 39.2 53.6 42.2 51.2 44.6" stroke="white" stroke-width="3.1" stroke-linecap="round" stroke-linejoin="round"/>
  <circle cx="30.5" cy="35.5" r="1.9" fill="white"/>
  <circle cx="38" cy="35.5" r="1.9" fill="white"/>
  <circle cx="45.5" cy="35.5" r="1.9" fill="white"/>
</svg>
