<?xml version="1.0" standalone="no"?><!DOCTYPE svg PUBLIC "-//W3C//DTD SVG 1.1//EN" "http://www.w3.org/Graphics/SVG/1.1/DTD/svg11.dtd"><svg t="1770377187053" class="icon" viewBox="0 0 1024 1024" version="1.1" xmlns="http://www.w3.org/2000/svg" p-id="2021" xmlns:xlink="http://www.w3.org/1999/xlink" width="200" height="200"><path d="M888 554H626a72 72 0 0 0-72 72v262a72 72 0 0 0 72 72h262a72 72 0 0 0 72-72V626a72 72 0 0 0-72-72z m-490 0H136a72 72 0 0 0-72 72v262a72 72 0 0 0 72 72h262a72 72 0 0 0 72-72V626a72 72 0 0 0-72-72zM888 64H626a72 72 0 0 0-72 72v262a72 72 0 0 0 72 72h262a72 72 0 0 0 72-72V136a72 72 0 0 0-72-72z m-490 0H136a72 72 0 0 0-72 72v262a72 72 0 0 0 72 72h262a72 72 0 0 0 72-72V136a72 72 0 0 0-72-72z" p-id="2022"></path></svg>